<svg width="48" height="37" viewBox="0 0 48 37" fill="none" xmlns="http://www.w3.org/2000/svg">
<path d="M32.5 31.951V27.326H26.5V25.0135H32.5V20.3885H35.5V25.0135H41.5V27.326H35.5V31.951H32.5ZM6 27.75V25.4375H9V27.75H6ZM12 27.75V25.4375H22.55V26.5552C22.55 26.8635 22.6 27.2618 22.7 27.75H12ZM6 21.3521V19.0396H9V21.3521H6ZM12 21.3521V19.0396H27.15C26.575 19.3554 26.0563 19.7105 25.594 20.1049C25.1313 20.4995 24.7167 20.9153 24.35 21.3521H12ZM6 14.9156V12.6031H9V14.9156H6ZM12 14.9156V12.6031H38V14.9156H12ZM6 8.47917V6.16667H9V8.47917H6ZM12 8.47917V6.16667H38V8.47917H12Z" fill="#E92528"/>
</svg>
